<?xml version="1.0" encoding="UTF-8"?>
<svg version="1.1" xmlns="http://www.w3.org/2000/svg" width="256" height="256">
<path d="M0 0 C55.09186303 -1.18079944 101.05250593 15.67706664 147.95068359 43.79174805 C149.27506741 44.57258859 150.62487689 45.31243845 152 46 C150.66785819 49.1678324 149.57152138 50.59209942 146.53515625 52.19140625 C145.82633301 52.57393555 145.11750977 52.95646484 144.38720703 53.35058594 C143.23647705 53.9504834 143.23647705 53.9504834 142.0625 54.5625 C140.43492108 55.43120573 138.80866327 56.30239024 137.18359375 57.17578125 C136.33651855 57.63033691 135.48944336 58.08489258 134.61669922 58.55322266 C131.94449301 60.03068991 129.33202665 61.58241214 126.72265625 63.16796875 C125.86986084 63.68222412 125.01706543 64.19647949 124.13842773 64.72631836 C122.48352636 65.72954706 120.83562957 66.74443733 119.19555664 67.77172852 C118.44266357 68.22346436 117.68977051 68.6752002 116.9140625 69.140625 C116.2535791 69.54829102 115.5930957 69.95595703 114.91259766 70.37597656 C113 71 113 71 110.84912109 70.20996094 C108.96166549 68.97491605 107.58994404 67.58994404 106 66 C105.360625 65.71125 104.72125 65.4225 104.0625 65.125 C102 64 102 64 100.1875 61.6875 C97.92541718 58.90836968 95.75424876 57.28708406 92.82421875 55.296875 C91.08873141 54.063081 89.56922357 52.74860178 88 51.3125 C76.53872815 41.38779427 62.63250344 34.06100666 49.57861328 26.49707031 C47.31543994 25.18313555 45.06102892 23.85564702 42.80859375 22.5234375 C31.93067442 16.16513951 20.51953281 11.07636687 9 6 C7.27967628 5.23628866 5.55960655 4.47200486 3.83984375 3.70703125 C3.09984131 3.37807861 2.35983887 3.04912598 1.59741211 2.71020508 C1.07026611 2.4758374 0.54312012 2.24146973 0 2 C0 1.34 0 0.68 0 0 Z " fill="#04BD63" transform="translate(6,118)"/>
<path d="M0 0 C1.44753662 0.82564453 1.44753662 0.82564453 2.92431641 1.66796875 C3.8426123 2.20035156 4.7609082 2.73273438 5.70703125 3.28125 C6.53307861 3.75626953 7.35912598 4.23128906 8.21020508 4.72070312 C8.8008374 5.14287109 9.39146973 5.56503906 10 6 C10 6.66 10 7.32 10 8 C6.67931116 9.69275895 3.34172684 11.34921371 0 13 C-0.93457031 13.47695312 -1.86914062 13.95390625 -2.83203125 14.4453125 C-8.55796112 17.24821523 -12.62053936 18.88310716 -19 18 C-21.70186069 16.98396415 -23.99161406 15.98137468 -26.5 14.625 C-27.53737305 14.08588989 -27.53737305 14.08588989 -28.59570312 13.53588867 C-34.05425824 10.64391846 -39.25013869 7.39068687 -44.45092773 4.06494141 C-81.6041773 -19.46796324 -120.60973015 -32.59799853 -164 -38 C-164.33 -38.99 -164.66 -39.98 -165 -41 C-160.35146348 -42.10504038 -155.68824735 -43.0826132 -151 -44 C-149.15341797 -44.37125 -149.15341797 -44.37125 -147.26953125 -44.75 C-96.15841467 -52.95238581 -42.68238738 -24.87041694 0 0 Z " fill="#04BC63" transform="translate(197,135)"/>
<path d="M0 0 C9.28150586 0.57323591 18.47431426 1.42501635 27.6875 2.6875 C28.91976318 2.85540039 30.15202637 3.02330078 31.42163086 3.19628906 C43.61669273 4.94409529 55.56533727 7.59319399 67.52758789 10.51269531 C70.23408679 11.12891773 70.23408679 11.12891773 74 11 C74 11.66 74 12.32 74 13 C75.72851196 13.1697937 75.72851196 13.1697937 77.49194336 13.34301758 C81.91129654 13.89932567 85.92408774 15.07724264 90.12890625 16.51171875 C90.88106918 16.7624263 91.63323212 17.01313385 92.40818787 17.2714386 C93.99346259 17.80164059 95.57752274 18.33548675 97.16040039 18.87280273 C99.52914015 19.67618566 101.90179233 20.46696305 104.27539062 21.25585938 C144.63496161 34.76379524 144.63496161 34.76379524 154 45 C155.1875 48.125 155.1875 48.125 155 51 C152.81567858 53.88642473 151.44696406 54.85101198 148 56 C132.1100154 57.56085195 119.30665569 51.14071087 106.0234375 43.2265625 C87.67580387 32.43651493 68.62619886 23.88464105 48.5625 16.875 C47.77535614 16.59919098 46.98821228 16.32338196 46.17721558 16.03921509 C37.89585579 13.15526549 29.69419888 10.48556639 21.10522461 8.64501953 C20.06313843 8.32573486 20.06313843 8.32573486 19 8 C18.67 7.34 18.34 6.68 18 6 C15.91943842 5.41741091 15.91943842 5.41741091 13.4375 5.0625 C8.66470127 4.20408296 4.48549324 2.82742317 0 1 C0 0.67 0 0.34 0 0 Z " fill="#04BC63" transform="translate(93,69)"/>
<path d="M0 0 C0 0.33 0 0.66 0 1 C-4.45370678 1.95627638 -7.90817745 1.90623315 -12.375 1.0625 C-13.43460938 0.86785156 -14.49421875 0.67320313 -15.5859375 0.47265625 C-16.38257813 0.31667969 -17.17921875 0.16070312 -18 0 C-18.33 0.66 -18.66 1.32 -19 2 C-19.99 2.33 -20.98 2.66 -22 3 C-21.505 4.485 -21.505 4.485 -21 6 C-20.34 6.33 -19.68 6.66 -19 7 C-18.505 8.485 -18.505 8.485 -18 10 C-12.95526836 12.308606 -7.53728165 13.43715381 -2 13 C-2 13.66 -2 14.32 -2 15 C-1.01 15 -0.02 15 1 15 C1.495 16.485 1.495 16.485 2 18 C-1.41120958 17.36954793 -4.65591257 16.53905735 -7.95703125 15.4765625 C-26.51013776 9.60043063 -44.73066565 6.48593597 -64 4 C-64.33 3.01 -64.66 2.02 -65 1 C-60.35146348 -0.10504038 -55.68824735 -1.0826132 -51 -2 C-49.15341797 -2.37125 -49.15341797 -2.37125 -47.26953125 -2.75 C-31.56812873 -5.26978375 -15.56002241 -2.66564965 0 0 Z " fill="#08BA64" transform="translate(97,93)"/>
<path d="M0 0 C9.28150586 0.57323591 18.47431426 1.42501635 27.6875 2.6875 C28.91976318 2.85540039 30.15202637 3.02330078 31.42163086 3.19628906 C43.61669273 4.94409529 55.56533727 7.59319399 67.52758789 10.51269531 C70.23408679 11.12891773 70.23408679 11.12891773 74 11 C74 11.66 74 12.32 74 13 C76.31 13.33 78.62 13.66 81 14 C79.68 14.66 78.36 15.32 77 16 C76.505 15.505 76.505 15.505 76 15 C74.845 14.835 73.69 14.67 72.5 14.5 C69 14 69 14 68 13 C65.67182036 12.63239269 63.3381615 12.29758419 61 12 C61 11.34 61 10.68 61 10 C60.62875 10.474375 60.2575 10.94875 59.875 11.4375 C57.37353038 13.52205802 55.18406582 13.64621491 52 14 C51.505 12.02 51.505 12.02 51 10 C50.34 10 49.68 10 49 10 C49.61277612 12.96175123 50.25372522 14.38058783 52 17 C44.00158235 15.3673333 36.38854455 12.94828077 28.64453125 10.390625 C27.23107422 9.93042969 27.23107422 9.93042969 25.7890625 9.4609375 C24.94037598 9.18040527 24.09168945 8.89987305 23.21728516 8.61083984 C20.90127219 7.86720219 20.90127219 7.86720219 18 8 C18 7.34 18 6.68 18 6 C17.05640625 5.83564453 17.05640625 5.83564453 16.09375 5.66796875 C10.43376318 4.61950734 5.3305114 3.17168983 0 1 C0 0.67 0 0.34 0 0 Z " fill="#08BA64" transform="translate(93,69)"/>
<path d="M0 0 C-0.33 0.66 -0.66 1.32 -1 2 C-4.63 2 -8.26 2 -12 2 C-12 2.99 -12 3.98 -12 5 C-11.20078125 5.03738281 -10.4015625 5.07476562 -9.578125 5.11328125 C-1.74673753 5.58206149 5.46154832 6.84033547 13 9 C13 9.33 13 9.66 13 10 C1.59126026 9.30199694 -9.69106922 7.60456399 -21 6 C-21.33 5.01 -21.66 4.02 -22 3 C-7.40318907 -0.44419134 -7.40318907 -0.44419134 0 0 Z " fill="#20AD6D" transform="translate(54,91)"/>
<path d="M0 0 C1.5625 1.125 1.5625 1.125 3 3 C3.0625 6 3.0625 6 2 9 C-3.17287756 13.19422505 -9.69514806 12.65476292 -16 12 C-25.1668488 10.19115692 -33.05373994 6.86505718 -41 2 C-38.29120665 0.64560332 -35.99066732 0.93498549 -33 1 C-32.67 1.99 -32.34 2.98 -32 4 C-24.50509884 8.35750067 -18.11412179 9.28243022 -9.625 9.125 C-8.69816406 9.11597656 -7.77132812 9.10695313 -6.81640625 9.09765625 C-4.54399923 9.07422937 -2.2721382 9.04142748 0 9 C0.97591583 5.61682513 0.85856655 3.4342662 0 0 Z " fill="#22AA6C" transform="translate(245,113)"/>
<path d="M0 0 C7.68897931 0.51405694 15.34855794 1.0765501 23 2 C23 2.33 23 2.66 23 3 C20.69 3.33 18.38 3.66 16 4 C20.22957281 5.52494802 24.21660215 6.89377656 28.6875 7.5 C32.31374323 8.04735747 34.76841004 9.31395307 38 11 C40.73572585 11.69907414 40.73572585 11.69907414 43 12 C43 12.66 43 13.32 43 14 C36.45211533 12.66822685 30.1774746 10.86362653 23.8203125 8.8046875 C21.00799828 7.86281536 21.00799828 7.86281536 18 8 C18 7.34 18 6.68 18 6 C17.05640625 5.83564453 17.05640625 5.83564453 16.09375 5.66796875 C10.43376318 4.61950734 5.3305114 3.17168983 0 1 C0 0.67 0 0.34 0 0 Z " fill="#26AB6D" transform="translate(93,69)"/>
<path d="M0 0 C3.3 1.65 6.6 3.3 10 5 C10 5.66 10 6.32 10 7 C6.67931116 8.69275895 3.34172684 10.34921371 0 12 C-1.40185547 12.71542969 -1.40185547 12.71542969 -2.83203125 13.4453125 C-9.50787218 16.71320666 -14.40541883 18.46191219 -21.75 16.125 C-22.4925 15.75375 -23.235 15.3825 -24 15 C-24.763125 14.62875 -25.52625 14.2575 -26.3125 13.875 C-26.869375 13.58625 -27.42625 13.2975 -28 13 C-26.25 12.375 -26.25 12.375 -24 12 C-22.65444551 12.64164268 -21.32159794 13.31036161 -20 14 C-14.99750324 14.47991432 -9.86887789 14.29836744 -5 13 C-5 12.34 -5 11.68 -5 11 C-1.7 9.68 1.6 8.36 5 7 C4.33131686 3.88667752 4.33131686 3.88667752 1.9375 2.8125 C1.298125 2.544375 0.65875 2.27625 0 2 C0 1.34 0 0.68 0 0 Z " fill="#24A96C" transform="translate(197,136)"/>
<path d="M0 0 C9.24 0 18.48 0 28 0 C28 0.33 28 0.66 28 1 C19.585 1.495 19.585 1.495 11 2 C11.66 3.65 12.32 5.3 13 7 C11.39402675 6.54803755 9.79027492 6.08817673 8.1875 5.625 C7.29417969 5.36976562 6.40085937 5.11453125 5.48046875 4.8515625 C3 4 3 4 0 2 C0 1.34 0 0.68 0 0 Z " fill="#17B468" transform="translate(6,118)"/>
<path d="M0 0 C7.27737013 0.46205525 14.06178458 1.84433729 21.10913086 3.62792969 C24.54890516 4.48620003 27.42885215 5 31 5 C31 5.66 31 6.32 31 7 C33.31 7.33 35.62 7.66 38 8 C36.02 8.99 36.02 8.99 34 10 C33.505 9.505 33.505 9.505 33 9 C31.845 8.835 30.69 8.67 29.5 8.5 C26 8 26 8 25 7 C22.67182036 6.63239269 20.3381615 6.29758419 18 6 C18 5.34 18 4.68 18 4 C16.700625 4.061875 15.40125 4.12375 14.0625 4.1875 C8.94450211 4.21187142 4.71931779 2.87433898 0 1 C0 0.67 0 0.34 0 0 Z " fill="#25AE6F" transform="translate(136,75)"/>
<path d="M0 0 C3.0831351 1.19899698 6.06279492 2.47700477 9 4 C8.375 5.875 8.375 5.875 7 8 C3.875 9.25 3.875 9.25 1 10 C1 8.68 1 7.36 1 6 C0.01 5.67 -0.98 5.34 -2 5 C-1.34 3.35 -0.68 1.7 0 0 Z " fill="#0AB962" transform="translate(149,160)"/>
<path d="M0 0 C3.3 0 6.6 0 10 0 C10 0.66 10 1.32 10 2 C15.99320151 3.45933748 21.85845775 4.41509121 28 5 C28 5.66 28 6.32 28 7 C28.99 7 29.98 7 31 7 C31.33 7.99 31.66 8.98 32 10 C26.34599591 8.94804776 20.93198372 7.23918832 15.4375 5.5625 C13.87612305 5.09360352 13.87612305 5.09360352 12.28320312 4.61523438 C11.28095703 4.31037109 10.27871094 4.00550781 9.24609375 3.69140625 C8.33529053 3.41498291 7.4244873 3.13855957 6.48608398 2.85375977 C4 2 4 2 0 0 Z " fill="#27AD6D" transform="translate(67,101)"/>
<path d="M0 0 C4.15020378 1.26264223 7.68170244 2.80902146 11.3984375 5.0390625 C12.37167969 5.61914062 13.34492188 6.19921875 14.34765625 6.796875 C15.84619141 7.70179687 15.84619141 7.70179687 17.375 8.625 C18.39722656 9.23601562 19.41945312 9.84703125 20.47265625 10.4765625 C22.98492073 11.97922537 25.49385721 13.48715715 28 15 C27.01 15.495 27.01 15.495 26 16 C23.64453125 14.890625 23.64453125 14.890625 20.8125 13.25 C17.58724497 11.41967834 14.44878496 9.67872102 11 8.3125 C8.20527084 7.08980599 7.03706734 6.13407055 5 4 C3.948125 3.7525 3.948125 3.7525 2.875 3.5 C2.25625 3.335 1.6375 3.17 1 3 C0.67 2.01 0.34 1.02 0 0 Z " fill="#23AA6C" transform="translate(168,120)"/>
<path d="M0 0 C5.85749607 1.63622618 10.90451108 4.50335626 16.1875 7.4375 C17.08919922 7.92798828 17.99089844 8.41847656 18.91992188 8.92382812 C19.78552734 9.40142578 20.65113281 9.87902344 21.54296875 10.37109375 C22.7189563 11.0196936 22.7189563 11.0196936 23.91870117 11.68139648 C25.91626404 12.94694921 27.4096454 14.26087747 29 16 C20.30533732 14.15387299 12.47242978 8.59648622 5 4 C4.07832031 3.46632812 3.15664062 2.93265625 2.20703125 2.3828125 C1.47871094 1.92648438 0.75039062 1.47015625 0 1 C0 0.67 0 0.34 0 0 Z " fill="#24AB6B" transform="translate(120,144)"/>
<path d="M0 0 C7.84531263 0.85275137 15.34391422 2.62600077 22 7 C23.3303125 7.495 23.3303125 7.495 24.6875 8 C27 9 27 9 29 12 C23.49984905 10.25449755 18.16744494 8.14042694 12.8125 6 C11.91080078 5.64421875 11.00910156 5.2884375 10.08007812 4.921875 C9.21447266 4.57640625 8.34886719 4.2309375 7.45703125 3.875 C6.67303955 3.56304687 5.88904785 3.25109375 5.08129883 2.9296875 C3 2 3 2 0 0 Z " fill="#25AC6F" transform="translate(147,87)"/>
<path d="M0 0 C8.8150919 0.41559987 17.39602581 0.86968908 26 3 C26 3.33 26 3.66 26 4 C24.18757948 4.02687279 22.37504767 4.04633715 20.5625 4.0625 C19.55316406 4.07410156 18.54382813 4.08570312 17.50390625 4.09765625 C15 4 15 4 14 3 C10.63790935 2.71530684 7.27585999 2.55104937 3.90625 2.37890625 C2.9471875 2.25386719 1.988125 2.12882812 1 2 C0.67 1.34 0.34 0.68 0 0 Z " fill="#21AE6D" transform="translate(35,119)"/>
<path d="M0 0 C0.99 0.495 0.99 0.495 2 1 C1.67 1.66 1.34 2.32 1 3 C0.67 2.01 0.34 1.02 0 0 Z M-8 1 C-4.87709365 1.48578543 -2.00419641 1.9986012 1 3 C1.68486725 4.32407669 2.34870203 5.65909241 3 7 C4.29470975 8.37086915 5.62150897 9.71340837 7 11 C3.13518578 9.61423779 0.03192572 7.81080359 -3.3125 5.4375 C-4.19550781 4.81746094 -5.07851562 4.19742188 -5.98828125 3.55859375 C-6.65214844 3.04425781 -7.31601563 2.52992188 -8 2 C-8 1.67 -8 1.34 -8 1 Z " fill="#1BB364" transform="translate(83,154)"/>
<path d="M0 0 C4.35970831 1.34849837 8.31341438 3.04907846 12.375 5.125 C13.43460938 5.66382812 14.49421875 6.20265625 15.5859375 6.7578125 C16.38257813 7.16773437 17.17921875 7.57765625 18 8 C14.86650268 9.04449911 14.01031744 8.93423645 11 8 C11 7.34 11 6.68 11 6 C9.576875 6.0928125 9.576875 6.0928125 8.125 6.1875 C7.09375 6.125625 6.0625 6.06375 5 6 C4.34 5.01 3.68 4.02 3 3 C2.01 2.67 1.02 2.34 0 2 C0 1.34 0 0.68 0 0 Z " fill="#1DAD6B" transform="translate(150,111)"/>
<path d="M0 0 C6.68993219 0.53951066 12.63460728 1.88706171 19 4 C19 4.33 19 4.66 19 5 C16.54126232 4.85941524 14.08314825 4.71277001 11.625 4.5625 C10.92632812 4.52318359 10.22765625 4.48386719 9.5078125 4.44335938 C4.2265625 4.11328125 4.2265625 4.11328125 2 3 C2 2.34 2 1.68 2 1 C1.34 0.67 0.68 0.34 0 0 Z " fill="#1FAE6C" transform="translate(61,123)"/>
<path d="M0 0 C9.24 0 18.48 0 28 0 C28 0.33 28 0.66 28 1 C19.75 1 11.5 1 3 1 C3 1.66 3 2.32 3 3 C2.01 2.67 1.02 2.34 0 2 C0 1.34 0 0.68 0 0 Z " fill="#28B073" transform="translate(6,118)"/>
<path d="M0 0 C4.49983387 -0.39704417 7.05389398 0.94473645 11 3 C13.73572585 3.69907414 13.73572585 3.69907414 16 4 C16 4.66 16 5.32 16 6 C10.60204011 4.84941444 5.29012667 3.57578241 0 2 C0 1.34 0 0.68 0 0 Z " fill="#20AC6B" transform="translate(120,77)"/>
<path d="M0 0 C1.65 0 3.3 0 5 0 C5.33 0.99 5.66 1.98 6 3 C6.78375 3.144375 7.5675 3.28875 8.375 3.4375 C11 4 11 4 13 5 C13 5.66 13 6.32 13 7 C8.1725201 5.58707905 4.2837641 3.57025846 0 1 C0 0.67 0 0.34 0 0 Z " fill="#24A96E" transform="translate(128,124)"/>
<path d="M0 0 C5.65020618 0.60108576 10.66164461 2.07528683 16 4 C16 4.33 16 4.66 16 5 C9.741346 5.5326514 5.54891215 3.81849506 0 1 C0 0.67 0 0.34 0 0 Z " fill="#25AC6B" transform="translate(178,85)"/>
<path d="M0 0 C4.571279 0.54855348 8.67435795 1.41744803 13 3 C13 3.33 13 3.66 13 4 C7.73946963 4.31563182 4.55426184 3.66590937 0 1 C0 0.67 0 0.34 0 0 Z " fill="#1EAD6C" transform="translate(110,97)"/>
<path d="M0 0 C5.28 0 10.56 0 16 0 C16 0.33 16 0.66 16 1 C13.02148438 1.34179688 13.02148438 1.34179688 10.04296875 1.68359375 C7.80603607 1.97170735 7.80603607 1.97170735 5 3 C2.3125 2.0625 2.3125 2.0625 0 1 C0 0.67 0 0.34 0 0 Z " fill="#11B568" transform="translate(107,72)"/>
<path d="M0 0 C3.3 0 6.6 0 10 0 C10 0.66 10 1.32 10 2 C10.66 2 11.32 2 12 2 C11.67 2.66 11.34 3.32 11 4 C7.37 3.01 3.74 2.02 0 1 C0 0.67 0 0.34 0 0 Z " fill="#20B167" transform="translate(67,101)"/>
<path d="M0 0 C1.32 0.33 2.64 0.66 4 1 C3.375 2.875 3.375 2.875 2 5 C-1.125 6.25 -1.125 6.25 -4 7 C-3.67 6.01 -3.34 5.02 -3 4 C-1.68 4 -0.36 4 1 4 C0.67 2.68 0.34 1.36 0 0 Z " fill="#24A86F" transform="translate(154,163)"/>
<path d="M0 0 C4.12751449 0.60698743 7.3321148 2.03810791 11 4 C11 4.66 11 5.32 11 6 C6.95743617 4.77782954 3.50711041 3.37245704 0 1 C0 0.67 0 0.34 0 0 Z " fill="#29A971" transform="translate(181,101)"/>
<path d="M0 0 C3.55780196 0.60990891 6.6828589 1.5783681 10 3 C10 3.66 10 4.32 10 5 C9.01 5 8.02 5 7 5 C7 4.34 7 3.68 7 3 C5.02 3 3.04 3 1 3 C0.67 2.01 0.34 1.02 0 0 Z " fill="#1EAE6C" transform="translate(211,96)"/>
<path d="M0 0 C3.63 0.33 7.26 0.66 11 1 C10.01 1.495 10.01 1.495 9 2 C8.67 2.66 8.34 3.32 8 4 C5.36 3.01 2.72 2.02 0 1 C0 0.67 0 0.34 0 0 Z " fill="#3BA176" transform="translate(93,69)"/>
<path d="M0 0 C3.33333333 1.66666667 6.66666667 3.33333333 10 5 C8.02 5.99 8.02 5.99 6 7 C4.02 4.69 2.04 2.38 0 0 Z " fill="#2DA46F" transform="translate(111,182)"/>
<path d="" fill="#FFFFFF" transform="translate(0,0)"/>
<path d="" fill="#FFFFFF" transform="translate(0,0)"/>
<path d="" fill="#FFFFFF" transform="translate(0,0)"/>
<path d="" fill="#FFFFFF" transform="translate(0,0)"/>
<path d="" fill="#FFFFFF" transform="translate(0,0)"/>
<path d="" fill="#FFFFFF" transform="translate(0,0)"/>
<path d="" fill="#FFFFFF" transform="translate(0,0)"/>
<path d="" fill="#FFFFFF" transform="translate(0,0)"/>
<path d="" fill="#FFFFFF" transform="translate(0,0)"/>
<path d="" fill="#FFFFFF" transform="translate(0,0)"/>
<path d="" fill="#FFFFFF" transform="translate(0,0)"/>
<path d="" fill="#FFFFFF" transform="translate(0,0)"/>
<path d="" fill="#FFFFFF" transform="translate(0,0)"/>
<path d="" fill="#FFFFFF" transform="translate(0,0)"/>
<path d="" fill="#FFFFFF" transform="translate(0,0)"/>
<path d="" fill="#FFFFFF" transform="translate(0,0)"/>
<path d="" fill="#FFFFFF" transform="translate(0,0)"/>
<path d="" fill="#FFFFFF" transform="translate(0,0)"/>
<path d="" fill="#FFFFFF" transform="translate(0,0)"/>
<path d="" fill="#FFFFFF" transform="translate(0,0)"/>
<path d="" fill="#FFFFFF" transform="translate(0,0)"/>
<path d="" fill="#FFFFFF" transform="translate(0,0)"/>
<path d="" fill="#FFFFFF" transform="translate(0,0)"/>
<path d="" fill="#FFFFFF" transform="translate(0,0)"/>
<path d="" fill="#FFFFFF" transform="translate(0,0)"/>
<path d="" fill="#FFFFFF" transform="translate(0,0)"/>
<path d="" fill="#FFFFFF" transform="translate(0,0)"/>
<path d="" fill="#FFFFFF" transform="translate(0,0)"/>
<path d="" fill="#FFFFFF" transform="translate(0,0)"/>
<path d="" fill="#FFFFFF" transform="translate(0,0)"/>
<path d="" fill="#FFFFFF" transform="translate(0,0)"/>
<path d="" fill="#FFFFFF" transform="translate(0,0)"/>
<path d="" fill="#FFFFFF" transform="translate(0,0)"/>
<path d="" fill="#FFFFFF" transform="translate(0,0)"/>
<path d="" fill="#FFFFFF" transform="translate(0,0)"/>
<path d="" fill="#FFFFFF" transform="translate(0,0)"/>
<path d="" fill="#FFFFFF" transform="translate(0,0)"/>
<path d="" fill="#FFFFFF" transform="translate(0,0)"/>
<path d="" fill="#FFFFFF" transform="translate(0,0)"/>
<path d="" fill="#FFFFFF" transform="translate(0,0)"/>
<path d="" fill="#FFFFFF" transform="translate(0,0)"/>
<path d="" fill="#FFFFFF" transform="translate(0,0)"/>
<path d="" fill="#FFFFFF" transform="translate(0,0)"/>
<path d="" fill="#FFFFFF" transform="translate(0,0)"/>
<path d="" fill="#FFFFFF" transform="translate(0,0)"/>
<path d="" fill="#FFFFFF" transform="translate(0,0)"/>
<path d="" fill="#FFFFFF" transform="translate(0,0)"/>
<path d="" fill="#FFFFFF" transform="translate(0,0)"/>
<path d="" fill="#FFFFFF" transform="translate(0,0)"/>
<path d="" fill="#FFFFFF" transform="translate(0,0)"/>
<path d="" fill="#FFFFFF" transform="translate(0,0)"/>
<path d="" fill="#FFFFFF" transform="translate(0,0)"/>
<path d="" fill="#FFFFFF" transform="translate(0,0)"/>
<path d="" fill="#FFFFFF" transform="translate(0,0)"/>
<path d="" fill="#FF00FF" transform="translate(0,0)"/>
<path d="" fill="#FFFFFF" transform="translate(0,0)"/>
<path d="" fill="#FFFFFF" transform="translate(0,0)"/>
<path d="" fill="#FFFFFF" transform="translate(0,0)"/>
<path d="" fill="#FFFFFF" transform="translate(0,0)"/>
<path d="" fill="#FFFF00" transform="translate(0,0)"/>
<path d="" fill="#FFFFFF" transform="translate(0,0)"/>
<path d="" fill="#FFFFFF" transform="translate(0,0)"/>
<path d="" fill="#FFFFFF" transform="translate(0,0)"/>
<path d="" fill="#FFFFFF" transform="translate(0,0)"/>
<path d="" fill="#FFFFFF" transform="translate(0,0)"/>
</svg>
