<?xml version="1.0" standalone="no"?>
<!DOCTYPE svg PUBLIC "-//W3C//DTD SVG 20010904//EN"
 "http://www.w3.org/TR/2001/REC-SVG-20010904/DTD/svg10.dtd">
<svg version="1.0" xmlns="http://www.w3.org/2000/svg"
 width="256.000000pt" height="256.000000pt" viewBox="0 0 256.000000 256.000000"
 preserveAspectRatio="xMidYMid meet">

<g transform="translate(0.000000,256.000000) scale(0.100000,-0.100000)"
fill="#000000" stroke="none">
<path d="M1250 1670 c328 -108 487 -177 705 -305 141 -83 286 -117 355 -82 34
17 38 59 8 87 -103 96 -556 257 -928 329 -105 21 -331 52 -360 50 -8 0 91 -36
220 -79z"/>
<path d="M540 1554 c-138 -26 -130 -34 55 -55 269 -30 563 -143 906 -349 255
-154 249 -153 389 -85 l93 46 -129 76 c-334 196 -613 309 -885 359 -127 23
-327 27 -429 8z"/>
<path d="M230 1321 l-25 -8 25 -11 c14 -6 63 -27 110 -47 112 -48 266 -130
422 -226 154 -94 214 -138 337 -243 52 -45 98 -80 103 -78 9 2 340 191 345
196 4 4 -272 159 -354 200 -228 114 -519 197 -738 211 -49 3 -115 7 -145 9
-30 2 -66 1 -80 -3z"/>
</g>
</svg>
