<!-- 🎨 FAVICON TUDOAGRO: Tamanho otimizado para navegadores -->
<svg xmlns="http://www.w3.org/2000/svg" 
     width="64" 
     height="64" 
     viewBox="0 0 256 256" 
     preserveAspectRatio="xMidYMid meet">

<g transform="translate(0.000000,256.000000) scale(0.100000,-0.100000)"
fill="#000000" stroke="none">
<path d="M1305 1211 c75 -23 126 -45 177 -77 38 -24 88 -27 88 -5 0 25 -168
83 -275 95 l-50 6 60 -19z"/>
<path d="M1140 1181 c-33 -6 -32 -7 23 -13 61 -7 142 -40 219 -89 44 -28 49
-29 74 -16 l28 14 -55 32 c-106 61 -211 87 -289 72z"/>
<path d="M1071 1121 c48 -16 147 -73 188 -107 l39 -34 42 24 42 24 -43 25
c-75 44 -151 68 -224 73 -49 3 -62 1 -44 -5z"/>
</g>
</svg>
